<svg xmlns="http://www.w3.org/2000/svg" version="1.1" xmlns:xlink="http://www.w3.org/1999/xlink" xmlns:svgjs="http://svgjs.dev/svgjs" width="570" height="380" preserveAspectRatio="none" viewBox="0 0 570 380"><g mask="url(&quot;#SvgjsMask1463&quot;)" fill="none"><rect width="570" height="380" x="0" y="0" fill="rgba(0, 156, 255, 1)"></rect><path d="M0,223.602C42.599,224.265,84.037,209.548,119.359,185.726C154.187,162.238,180.294,128.519,197.685,90.28C215.057,52.083,225.47,9.952,218.089,-31.356C210.832,-71.968,185.884,-106.562,157.212,-136.225C129.663,-164.726,95.36,-184.215,57.876,-197.106C18.977,-210.483,-22.186,-221.408,-62.15,-211.663C-103.009,-201.7,-138.593,-175.692,-164.809,-142.807C-190.406,-110.698,-210.326,-70.723,-207.145,-29.783C-204.144,8.843,-163.616,32.145,-148.445,67.793C-132.657,104.891,-144.807,152.858,-116.996,182.049C-87.859,212.632,-42.236,222.945,0,223.602" fill="#0073bd"></path><path d="M570 591.962C609.606 589.477 645.23 570.446 678.164 548.307 710.545 526.54 741.395 501.166 757.7570000000001 465.746 774.157 430.245 765.602 390.314 769.139 351.368 773.934 298.567 817.8820000000001 235.342 782.245 196.088 746.281 156.473 678.237 198.166 625.02 192.62 584.382 188.385 548.374 164.946 507.594 167.463 459.444 170.435 403.408 171.814 371.791 208.251 340.173 244.689 355.451 300.454 350.551 348.448 345.884 394.164 323.902 441.877 343.70500000000004 483.345 363.45500000000004 524.704 411.425 542.619 452.745 562.452 489.831 580.2529999999999 528.944 594.538 570 591.962" fill="#42b6ff"></path></g><defs><mask id="SvgjsMask1463"><rect width="570" height="380" fill="#ffffff"></rect></mask></defs></svg>